<svg xmlns="http://www.w3.org/2000/svg" xmlns:xlink="http://www.w3.org/1999/xlink" width="15" height="15" viewBox="0 0 15 15">
  <defs>
    <rect id="rect-1" width="-15" height="15" x="15" y="0"/>
    <mask id="mask-2" maskContentUnits="userSpaceOnUse" maskUnits="userSpaceOnUse">
      <rect width="15" height="15" x="0" y="0" fill="black"/>
      <use fill="white" xlink:href="#rect-1"/>
    </mask>
  </defs>
  <g>
    <use fill="none" xlink:href="#rect-1"/>
    <g mask="url(#mask-2)">
      <path fill="rgb(68,68,68)" fill-rule="evenodd" d="M10.1019.67305c.13755.0786 4.5681 3.9753 4.65975 4.0965.036.04905.0687.1539.0786.2325.036.3144.09825.25215-2.4069 2.4495-1.7256 1.5162-2.32815 2.02365-2.4297 2.05965-.1932.06225-.39945.02295-.5469-.1047-.1998-.17685-.20625-.21285-.20625-1.26735V7.1895h-.1572c-.18345 0-.822.0753-1.2378.1473-1.29345.22605-2.50515.6681-3.3435 1.22475-.41925.2784-.8547.7041-1.0938 1.06425-.9267 1.4049-.1605 3.0258 1.92885 4.077.29145.1473.33405.1965.33405.3897 0 .17685-.12435.3012-.3012.3012-.2391 0-1.4409-.52395-2.14485-.9333C1.5159 12.4551.44175 11.1288.1929 9.7077.1176 9.26895.14385 8.59425.25515 8.17185.933 5.5881 4.2732 3.5349 8.7201 2.9652c.2751-.036.5076-.06555.51405-.06555.00975 0 .01635-.41595.01635-.9234 0-.87105.0033-.93.0687-1.06425.13425-.2751.5109-.3897.7827-.23895z"/>
    </g>
  </g>
</svg>
