<svg xmlns="http://www.w3.org/2000/svg" xmlns:xlink="http://www.w3.org/1999/xlink" width="33" height="33" viewBox="0 0 33 33">
  <defs>
    <rect id="rect-1" width="33" height="33" x="0" y="0"/>
    <mask id="mask-2" maskContentUnits="userSpaceOnUse" maskUnits="userSpaceOnUse">
      <rect width="33" height="33" x="0" y="0" fill="black"/>
      <use fill="white" xlink:href="#rect-1"/>
    </mask>
  </defs>
  <g>
    <use fill="none" xlink:href="#rect-1"/>
    <g mask="url(#mask-2)">
      <path fill="rgb(68,68,68)" fill-rule="evenodd" d="M10.77582 1.48071C10.47321 1.65363.726 10.22637.52437 10.49301c-.0792.10791-.15114.33858-.17292.5115-.0792.69168-.21615.55473 5.29518 5.3889 3.79632 3.33564 5.12193 4.45203 5.34534 4.53123.42504.13695.87879.05049 1.20318-.23034.43956-.38907.45375-.46827.45375-2.78817V15.8169h.34584c.40359 0 1.8084.16566 2.72316.32406 2.84559.49731 5.51133 1.46982 7.3557 2.69445.92235.61248 1.88034 1.54902 2.40636 2.34135 2.03874 3.09078.3531 6.65676-4.24347 8.9694-.64119.32406-.73491.4323-.73491.85734 0 .38907.27357.66264.66264.66264.52602 0 3.16998-1.15269 4.71867-2.05326 3.78213-2.21166 6.14526-5.12952 6.69273-8.25594.16566-.96525.10791-2.44959-.13695-3.37887-1.49127-5.68425-8.83971-10.20129-18.62289-11.45463-.60522-.0792-1.11672-.14421-1.13091-.14421-.02145 0-.03597-.91509-.03597-2.03148 0-1.91631-.00726-2.046-.15114-2.34135-.29535-.60522-1.12398-.85734-1.72194-.52569z"/>
    </g>
  </g>
</svg>
